<svg width="155" height="141" viewBox="0 0 155 141" fill="none" xmlns="http://www.w3.org/2000/svg">
<ellipse cx="4.73799" cy="4.82641" rx="4.73799" ry="4.82641" transform="matrix(-1 0 0 1 155 29.6479)" fill="#5053EA"/>
<mask id="path-2-inside-1_102_42939" fill="white">
<path fill-rule="evenodd" clip-rule="evenodd" d="M71.7468 0H129.28V69.6381H115.742C116.825 82.3247 125.218 87.7946 129.28 88.9438V114.11C83.2533 101.975 71.7468 67.6846 71.7468 52.0562V0ZM111.004 39.3007C108.388 39.3007 106.266 37.1398 106.266 34.4742C106.266 31.8087 108.388 29.6478 111.004 29.6478C113.621 29.6478 115.742 31.8087 115.742 34.4742C115.742 37.1398 113.621 39.3007 111.004 39.3007Z"/>
</mask>
<path fill-rule="evenodd" clip-rule="evenodd" d="M71.7468 0H129.28V69.6381H115.742C116.825 82.3247 125.218 87.7946 129.28 88.9438V114.11C83.2533 101.975 71.7468 67.6846 71.7468 52.0562V0ZM111.004 39.3007C108.388 39.3007 106.266 37.1398 106.266 34.4742C106.266 31.8087 108.388 29.6478 111.004 29.6478C113.621 29.6478 115.742 31.8087 115.742 34.4742C115.742 37.1398 113.621 39.3007 111.004 39.3007Z" fill="#5053EA"/>
<path d="M129.28 0V-4H133.28V0H129.28ZM71.7468 0H67.7468V-4H71.7468V0ZM129.28 69.6381H133.28V73.6381H129.28V69.6381ZM115.742 69.6381L111.757 69.9784L111.386 65.6381H115.742V69.6381ZM129.28 88.9438L130.369 85.0949L133.28 85.9186V88.9438H129.28ZM129.28 114.11H133.28V119.301L128.26 117.978L129.28 114.11ZM129.28 4H71.7468V-4H129.28V4ZM125.28 69.6381V0H133.28V69.6381H125.28ZM115.742 65.6381H129.28V73.6381H115.742V65.6381ZM128.19 92.7926C122.748 91.2527 113 84.5401 111.757 69.9784L119.728 69.2979C120.651 80.1093 127.689 84.3365 130.369 85.0949L128.19 92.7926ZM125.28 114.11V88.9438H133.28V114.11H125.28ZM75.7468 52.0562C75.7468 66.1073 86.2505 98.6286 130.299 110.242L128.26 117.978C80.2562 105.322 67.7468 69.2619 67.7468 52.0562H75.7468ZM75.7468 0V52.0562H67.7468V0H75.7468ZM110.266 34.4742C110.266 35.0007 110.666 35.3007 111.004 35.3007V43.3007C106.109 43.3007 102.266 39.2789 102.266 34.4742H110.266ZM111.004 33.6478C110.666 33.6478 110.266 33.9478 110.266 34.4742H102.266C102.266 29.6696 106.109 25.6478 111.004 25.6478V33.6478ZM111.742 34.4742C111.742 33.9478 111.343 33.6478 111.004 33.6478V25.6478C115.9 25.6478 119.742 29.6696 119.742 34.4742H111.742ZM111.004 35.3007C111.343 35.3007 111.742 35.0007 111.742 34.4742H119.742C119.742 39.2789 115.9 43.3007 111.004 43.3007V35.3007Z" fill="#5053EA" mask="url(#path-2-inside-1_102_42939)"/>
<mask id="path-4-inside-2_102_42939" fill="white">
<path fill-rule="evenodd" clip-rule="evenodd" d="M66.3318 54.8144C64.8653 42.8633 66.3318 26.5454 66.3318 26.5454H25.0436V96.1836C33.9781 99.4931 38.2423 111.697 38.5807 117.213H25.0436V141C52.6786 134.176 70.7623 116.673 78.7937 103.349C82.3145 97.5082 79.637 90.2966 76.2818 84.3589C71.3384 75.6102 67.3474 63.0906 66.3318 54.8144ZM43.9955 64.1224C41.3788 64.1224 39.2575 61.9615 39.2575 59.296C39.2575 56.6304 41.3788 54.4695 43.9955 54.4695C46.6123 54.4695 48.7335 56.6304 48.7335 59.296C48.7335 61.9615 46.6123 64.1224 43.9955 64.1224Z"/>
</mask>
<path fill-rule="evenodd" clip-rule="evenodd" d="M66.3318 54.8144C64.8653 42.8633 66.3318 26.5454 66.3318 26.5454H25.0436V96.1836C33.9781 99.4931 38.2423 111.697 38.5807 117.213H25.0436V141C52.6786 134.176 70.7623 116.673 78.7937 103.349C82.3145 97.5082 79.637 90.2966 76.2818 84.3589C71.3384 75.6102 67.3474 63.0906 66.3318 54.8144ZM43.9955 64.1224C41.3788 64.1224 39.2575 61.9615 39.2575 59.296C39.2575 56.6304 41.3788 54.4695 43.9955 54.4695C46.6123 54.4695 48.7335 56.6304 48.7335 59.296C48.7335 61.9615 46.6123 64.1224 43.9955 64.1224Z" fill="#4686E7"/>
<path d="M66.3318 26.5454V22.5454H70.7074L70.3157 26.9035L66.3318 26.5454ZM66.3318 54.8144L70.302 54.3272L66.3318 54.8144ZM25.0436 26.5454H21.0436V22.5454H25.0436V26.5454ZM25.0436 96.1836L23.6542 99.9345L21.0436 98.9675V96.1836H25.0436ZM38.5807 117.213L42.5732 116.968L42.8336 121.213H38.5807V117.213ZM25.0436 117.213H21.0436V113.213H25.0436V117.213ZM25.0436 141L26.0026 144.884L21.0436 146.108V141H25.0436ZM78.7937 103.349L75.3679 101.284L75.3679 101.284L78.7937 103.349ZM76.2818 84.3589L72.7993 86.3266L76.2818 84.3589ZM66.3318 26.5454C70.3157 26.9035 70.3158 26.9032 70.3158 26.903C70.3158 26.9031 70.3158 26.9029 70.3158 26.903C70.3158 26.9031 70.3157 26.9034 70.3157 26.904C70.3156 26.9052 70.3154 26.9073 70.3151 26.9105C70.3146 26.9167 70.3137 26.9269 70.3124 26.9408C70.31 26.9687 70.3063 27.0119 70.3014 27.0696C70.2916 27.1851 70.2771 27.3589 70.2591 27.5861C70.2231 28.0406 70.1728 28.708 70.1167 29.5482C70.0044 31.2297 69.8696 33.597 69.7797 36.3297C69.5985 41.839 69.6068 48.6616 70.302 54.3272L62.3616 55.3015C61.5903 49.016 61.5986 41.7041 61.784 36.0667C61.8774 33.2261 62.0175 30.767 62.1344 29.0154C62.1929 28.1391 62.2457 27.4383 62.2842 26.9537C62.3034 26.7113 62.319 26.523 62.33 26.3936C62.3355 26.3289 62.3398 26.2789 62.3428 26.2444C62.3443 26.2271 62.3455 26.2136 62.3464 26.2041C62.3468 26.1993 62.3471 26.1955 62.3474 26.1928C62.3475 26.1914 62.3476 26.1902 62.3477 26.1893C62.3477 26.1889 62.3478 26.1884 62.3478 26.1882C62.3478 26.1877 62.3478 26.1874 66.3318 26.5454ZM25.0436 22.5454H66.3318V30.5454H25.0436V22.5454ZM21.0436 96.1836V26.5454H29.0436V96.1836H21.0436ZM34.5882 117.458C34.4585 115.343 33.4968 111.469 31.5096 107.76C29.5118 104.03 26.829 101.111 23.6542 99.9345L26.433 92.4326C32.1926 94.5661 36.1092 99.4036 38.5617 103.982C41.0248 108.581 42.3645 113.567 42.5732 116.968L34.5882 117.458ZM25.0436 113.213H38.5807V121.213H25.0436V113.213ZM21.0436 141V117.213H29.0436V141H21.0436ZM82.2195 105.414C73.6995 119.549 54.7758 137.778 26.0026 144.884L24.0846 137.117C50.5815 130.573 67.825 113.798 75.3679 101.284L82.2195 105.414ZM79.7644 82.3911C81.5321 85.5196 83.2719 89.2347 84.04 93.1132C84.8186 97.044 84.6407 101.397 82.2195 105.414L75.3679 101.284C76.4676 99.46 76.7113 97.2871 76.1925 94.6674C75.6633 91.9954 74.3867 89.1359 72.7993 86.3266L79.7644 82.3911ZM70.302 54.3272C71.2525 62.0729 75.0741 74.0905 79.7644 82.3911L72.7993 86.3266C67.6027 77.1298 63.4422 64.1083 62.3616 55.3015L70.302 54.3272ZM43.2575 59.296C43.2575 59.8224 43.6574 60.1224 43.9955 60.1224V68.1224C39.1003 68.1224 35.2575 64.1006 35.2575 59.296H43.2575ZM43.9955 58.4695C43.6574 58.4695 43.2575 58.7695 43.2575 59.296H35.2575C35.2575 54.4913 39.1003 50.4695 43.9955 50.4695V58.4695ZM44.7335 59.296C44.7335 58.7695 44.3337 58.4695 43.9955 58.4695V50.4695C48.8908 50.4695 52.7335 54.4913 52.7335 59.296H44.7335ZM43.9955 60.1224C44.3337 60.1224 44.7335 59.8224 44.7335 59.296H52.7335C52.7335 64.1006 48.8908 68.1224 43.9955 68.1224V60.1224Z" fill="#4686E7" mask="url(#path-4-inside-2_102_42939)"/>
<ellipse cx="4.73799" cy="4.82641" rx="4.73799" ry="4.82641" transform="matrix(-1 0 0 1 9.47607 54.4695)" fill="#4686E7"/>
</svg>
