<svg width="179" height="47" viewBox="0 0 179 47" fill="none" xmlns="http://www.w3.org/2000/svg">
<path d="M23.527 46.448C19.3457 46.448 15.5057 45.4667 12.007 43.504C8.50833 41.5413 5.735 38.832 3.687 35.376C1.639 31.8773 0.615 27.9307 0.615 23.536C0.615 19.184 1.639 15.28 3.687 11.824C5.735 8.32533 8.50833 5.59466 12.007 3.632C15.5057 1.66933 19.3457 0.688 23.527 0.688C27.751 0.688 31.591 1.66933 35.047 3.632C38.5457 5.59466 41.2977 8.32533 43.303 11.824C45.351 15.28 46.375 19.184 46.375 23.536C46.375 27.9307 45.351 31.8773 43.303 35.376C41.2977 38.832 38.5457 41.5413 35.047 43.504C31.5483 45.4667 27.7083 46.448 23.527 46.448ZM23.527 38.448C26.215 38.448 28.583 37.8507 30.631 36.656C32.679 35.4187 34.279 33.6693 35.431 31.408C36.583 29.1467 37.159 26.5227 37.159 23.536C37.159 20.5493 36.583 17.9467 35.431 15.728C34.279 13.4667 32.679 11.7387 30.631 10.544C28.583 9.34933 26.215 8.752 23.527 8.752C20.839 8.752 18.4497 9.34933 16.359 10.544C14.311 11.7387 12.711 13.4667 11.559 15.728C10.407 17.9467 9.831 20.5493 9.831 23.536C9.831 26.5227 10.407 29.1467 11.559 31.408C12.711 33.6693 14.311 35.4187 16.359 36.656C18.4497 37.8507 20.839 38.448 23.527 38.448ZM78.385 23.088C80.9023 23.5573 82.9717 24.816 84.593 26.864C86.2143 28.912 87.025 31.2587 87.025 33.904C87.025 36.2933 86.4277 38.4053 85.233 40.24C84.081 42.032 82.3957 43.44 80.177 44.464C77.9583 45.488 75.3343 46 72.305 46H53.041V1.328H71.473C74.5023 1.328 77.105 1.81867 79.281 2.8C81.4997 3.78133 83.1637 5.14667 84.273 6.896C85.425 8.64533 86.001 10.6293 86.001 12.848C86.001 15.4507 85.297 17.6267 83.889 19.376C82.5237 21.1253 80.689 22.3627 78.385 23.088ZM62.001 19.76H70.193C72.3263 19.76 73.969 19.2907 75.121 18.352C76.273 17.3707 76.849 15.984 76.849 14.192C76.849 12.4 76.273 11.0133 75.121 10.032C73.969 9.05066 72.3263 8.56 70.193 8.56H62.001V19.76ZM71.025 38.704C73.201 38.704 74.8863 38.192 76.081 37.168C77.3183 36.144 77.937 34.6933 77.937 32.816C77.937 30.896 77.297 29.4027 76.017 28.336C74.737 27.2267 73.009 26.672 70.833 26.672H62.001V38.704H71.025ZM103.126 8.56V19.76H118.166V26.864H103.126V38.704H120.086V46H94.166V1.264H120.086V8.56H103.126ZM151.269 46L141.413 28.592H137.189V46H128.229V1.328H144.997C148.453 1.328 151.397 1.94667 153.829 3.184C156.261 4.37866 158.074 6.02133 159.269 8.112C160.506 10.16 161.125 12.464 161.125 15.024C161.125 17.968 160.271 20.6347 158.565 23.024C156.858 25.3707 154.319 26.992 150.949 27.888L161.637 46H151.269ZM137.189 21.872H144.677C147.109 21.872 148.922 21.296 150.117 20.144C151.311 18.9493 151.909 17.3067 151.909 15.216C151.909 13.168 151.311 11.5893 150.117 10.48C148.922 9.328 147.109 8.752 144.677 8.752H137.189V21.872ZM178.189 1.328V46H169.229V1.328H178.189Z" fill="#5053EA"/>
</svg>
