<svg width="21" height="20" viewBox="0 0 21 20" fill="none" xmlns="http://www.w3.org/2000/svg">
<path d="M4.35 15.1C5.2 14.45 6.15 13.9373 7.2 13.562C8.25 13.1873 9.35 13 10.5 13C11.65 13 12.75 13.1873 13.8 13.562C14.85 13.9373 15.8 14.45 16.65 15.1C17.2333 14.4167 17.6877 13.6417 18.013 12.775C18.3377 11.9083 18.5 10.9833 18.5 10C18.5 7.78333 17.721 5.89567 16.163 4.337C14.6043 2.779 12.7167 2 10.5 2C8.28333 2 6.396 2.779 4.838 4.337C3.27933 5.89567 2.5 7.78333 2.5 10C2.5 10.9833 2.66267 11.9083 2.988 12.775C3.31267 13.6417 3.76667 14.4167 4.35 15.1ZM10.5 11C9.51667 11 8.68733 10.6627 8.012 9.988C7.33733 9.31267 7 8.48333 7 7.5C7 6.51667 7.33733 5.68733 8.012 5.012C8.68733 4.33733 9.51667 4 10.5 4C11.4833 4 12.3127 4.33733 12.988 5.012C13.6627 5.68733 14 6.51667 14 7.5C14 8.48333 13.6627 9.31267 12.988 9.988C12.3127 10.6627 11.4833 11 10.5 11ZM10.5 20C9.11667 20 7.81667 19.7373 6.6 19.212C5.38333 18.6873 4.325 17.975 3.425 17.075C2.525 16.175 1.81267 15.1167 1.288 13.9C0.762667 12.6833 0.5 11.3833 0.5 10C0.5 8.61667 0.762667 7.31667 1.288 6.1C1.81267 4.88333 2.525 3.825 3.425 2.925C4.325 2.025 5.38333 1.31233 6.6 0.787C7.81667 0.262333 9.11667 0 10.5 0C11.8833 0 13.1833 0.262333 14.4 0.787C15.6167 1.31233 16.675 2.025 17.575 2.925C18.475 3.825 19.1873 4.88333 19.712 6.1C20.2373 7.31667 20.5 8.61667 20.5 10C20.5 11.3833 20.2373 12.6833 19.712 13.9C19.1873 15.1167 18.475 16.175 17.575 17.075C16.675 17.975 15.6167 18.6873 14.4 19.212C13.1833 19.7373 11.8833 20 10.5 20ZM10.5 18C11.3833 18 12.2167 17.871 13 17.613C13.7833 17.3543 14.5 16.9833 15.15 16.5C14.5 16.0167 13.7833 15.6457 13 15.387C12.2167 15.129 11.3833 15 10.5 15C9.61667 15 8.78333 15.129 8 15.387C7.21667 15.6457 6.5 16.0167 5.85 16.5C6.5 16.9833 7.21667 17.3543 8 17.613C8.78333 17.871 9.61667 18 10.5 18ZM10.5 9C10.9333 9 11.2917 8.85833 11.575 8.575C11.8583 8.29167 12 7.93333 12 7.5C12 7.06667 11.8583 6.70833 11.575 6.425C11.2917 6.14167 10.9333 6 10.5 6C10.0667 6 9.70833 6.14167 9.425 6.425C9.14167 6.70833 9 7.06667 9 7.5C9 7.93333 9.14167 8.29167 9.425 8.575C9.70833 8.85833 10.0667 9 10.5 9Z" fill="#757575"/>
</svg>
