<svg width="23" height="22" viewBox="0 0 23 22" fill="none" xmlns="http://www.w3.org/2000/svg">
<g clip-path="url(#clip0_897_2645)">
<path fill-rule="evenodd" clip-rule="evenodd" d="M19.8388 16.5726C19.2388 17.8991 18.326 19.0602 17.1787 19.9564C16.0315 20.8527 14.6839 21.4573 13.2517 21.7183C11.8195 21.9794 10.3453 21.8892 8.95555 21.4554C7.56583 21.0217 6.30207 20.2573 5.27263 19.2278C4.2432 18.1984 3.47882 16.9346 3.04505 15.5449C2.61129 14.1552 2.52108 12.681 2.78216 11.2488C3.04324 9.81651 3.64782 8.46897 4.54405 7.32169C5.44028 6.17441 6.60142 5.26164 7.92787 4.66166C8.65019 4.45626 10.2938 4.01252 11.0896 3.8808C12.3613 3.8036 13.6349 3.99725 14.8262 4.44894C16.0175 4.90064 17.0994 5.60009 18.0002 6.50105C18.901 7.402 19.6004 8.48393 20.0519 9.67529C20.5035 10.8667 20.697 12.1403 20.6196 13.412C20.6438 13.8253 20.5216 15.0361 19.8388 16.5726ZM10.509 7.24165H12.7593V8.36681H15.0096V10.6171H10.509L10.4077 10.6261C10.278 10.6496 10.1607 10.7179 10.0762 10.8191C9.99166 10.9203 9.94537 11.0479 9.94537 11.1797C9.94537 11.3115 9.99166 11.4392 10.0762 11.5403C10.1607 11.6415 10.278 11.7098 10.4077 11.7333L10.509 11.7423H12.7593L12.9438 11.7479C13.6736 11.7941 14.3567 12.1227 14.8483 12.6639C15.34 13.2052 15.6015 13.9167 15.5775 14.6475C15.5535 15.3783 15.2459 16.0711 14.7198 16.579C14.1937 17.0868 13.4905 17.3699 12.7593 17.3681V18.4932H10.509V17.3681H8.25867V15.1178H12.7593L12.8606 15.1088C12.9903 15.0853 13.1076 15.017 13.1921 14.9158C13.2766 14.8146 13.3229 14.687 13.3229 14.5552C13.3229 14.4234 13.2766 14.2957 13.1921 14.1946C13.1076 14.0934 12.9903 14.0251 12.8606 14.0016L12.7593 13.9926H10.509L10.3245 13.987C9.59469 13.9408 8.91159 13.6122 8.41995 13.071C7.92831 12.5297 7.66677 11.8182 7.69076 11.0874C7.71476 10.3566 8.02241 9.66379 8.54849 9.15593C9.07458 8.64807 9.77776 8.36503 10.509 8.36681V7.24165Z" fill="#EB9525"/>
</g>
<defs>
<clipPath id="clip0_897_2645">
<rect width="24" height="24" fill="white" transform="translate(0.633301 -2.13379)"/>
</clipPath>
</defs>
</svg>
