<svg width="25" height="24" viewBox="0 0 25 24" fill="none" xmlns="http://www.w3.org/2000/svg">
<circle cx="12.5" cy="12" r="8" fill="#FEFEFE"/>
<path d="M9 11L11.8939 13.8939C11.9525 13.9525 12.0475 13.9525 12.1061 13.8939L20 6" stroke="#18CE18" stroke-width="2"/>
<path d="M19.3673 10.6434C19.6773 12.2125 19.4405 13.8405 18.6965 15.2563C17.9524 16.6722 16.746 17.7905 15.2779 18.4252C13.8098 19.0599 12.1686 19.1728 10.6274 18.7449C9.0863 18.317 7.73816 17.3743 6.80738 16.0736C5.87661 14.7729 5.41934 13.1926 5.51167 11.5959C5.60401 9.99911 6.24039 8.48212 7.31489 7.29738C8.3894 6.11263 9.83722 5.33158 11.4174 5.08422C12.9976 4.83686 14.6148 5.13811 16 5.93782" stroke="#18CE18" stroke-width="2" stroke-linecap="round"/>
</svg>
