<svg width="45" height="45" viewBox="0 0 45 45" fill="none" xmlns="http://www.w3.org/2000/svg">
<path d="M26.2498 3.75C29.681 3.74836 33.0091 4.92313 35.6789 7.07836C38.3488 9.2336 40.199 12.239 40.9211 15.5934C41.6431 18.9477 41.1934 22.4483 39.6468 25.5111C38.1002 28.574 35.5503 31.0141 32.4223 32.4244C31.4225 34.6348 29.9014 36.5698 27.9896 38.0633C26.0777 39.5568 23.8321 40.5643 21.4454 40.9994C19.0586 41.4345 16.602 41.2841 14.2861 40.5613C11.9702 39.8384 9.86426 38.5646 8.14877 36.8492C6.43328 35.1337 5.1595 33.0277 4.43665 30.7118C3.71381 28.3959 3.56347 25.9393 3.99855 23.5526C4.43362 21.1658 5.44112 18.9202 6.93463 17.0084C8.42814 15.0965 10.3631 13.5755 12.5736 12.5756C13.7626 9.94479 15.6853 7.71282 18.1111 6.14739C20.5369 4.58196 23.3628 3.74956 26.2498 3.75ZM20.6248 16.875H16.8748V18.75C15.6563 18.747 14.4845 19.2187 13.6078 20.065C12.7311 20.9113 12.2184 22.0658 12.1784 23.2837C12.1384 24.5016 12.5743 25.6871 13.3936 26.5891C14.2129 27.4911 15.3512 28.0387 16.5673 28.1156L16.8748 28.125H20.6248L20.7936 28.14C21.0097 28.1791 21.2053 28.2929 21.3461 28.4615C21.4869 28.6301 21.564 28.8428 21.564 29.0625C21.564 29.2822 21.4869 29.4949 21.3461 29.6635C21.2053 29.8321 21.0097 29.9459 20.7936 29.985L20.6248 30H13.1248V33.75H16.8748V35.625H20.6248V33.75C21.8433 33.753 23.0151 33.2813 23.8918 32.435C24.7685 31.5887 25.2812 30.4342 25.3212 29.2163C25.3612 27.9985 24.9253 26.8129 24.106 25.9109C23.2868 25.0089 22.1484 24.4613 20.9323 24.3844L20.6248 24.375H16.8748L16.7061 24.36C16.4899 24.3209 16.2944 24.2071 16.1535 24.0385C16.0127 23.8699 15.9356 23.6572 15.9356 23.4375C15.9356 23.2178 16.0127 23.0051 16.1535 22.8365C16.2944 22.6679 16.4899 22.5541 16.7061 22.515L16.8748 22.5H24.3748V18.75H20.6248V16.875ZM26.2498 7.5C24.6611 7.49814 23.0901 7.83364 21.6407 8.4843C20.1914 9.13497 18.8967 10.086 17.8423 11.2744C19.9616 11.1457 22.084 11.4684 24.0692 12.2212C26.0544 12.9739 27.8573 14.1395 29.3585 15.6408C30.8597 17.1422 32.025 18.9452 32.7775 20.9305C33.53 22.9158 33.8525 25.0383 33.7236 27.1575C35.4283 25.6418 36.6321 23.6437 37.1751 21.4281C37.7181 19.2125 37.5748 16.8842 36.7641 14.752C35.9535 12.6197 34.5137 10.7843 32.6359 9.48916C30.7581 8.19399 28.531 7.50027 26.2498 7.5Z" fill="#EB9525"/>
</svg>
