<svg width="24" height="24" viewBox="0 0 24 24" fill="none" xmlns="http://www.w3.org/2000/svg">
<path d="M4.80005 4.80039C4.80006 4.37911 4.91096 3.96526 5.1216 3.60043C5.33225 3.23559 5.63521 2.93263 6.00005 2.72199V19.2004C6.00005 19.5187 6.12648 19.8239 6.35152 20.0489C6.57656 20.274 6.88179 20.4004 7.20005 20.4004H16.8C17.1183 20.4004 17.4235 20.274 17.6486 20.0489C17.8736 19.8239 18 19.5187 18 19.2004V4.80039C18 4.48213 17.8736 4.17691 17.6486 3.95186C17.4235 3.72682 17.1183 3.60039 16.8 3.60039H14.4V2.40039H16.8C17.4366 2.40039 18.047 2.65325 18.4971 3.10333C18.9472 3.55342 19.2 4.16387 19.2 4.80039V19.2004C19.2 19.8369 18.9472 20.4474 18.4971 20.8974C18.047 21.3475 17.4366 21.6004 16.8 21.6004H7.20005C6.56353 21.6004 5.95308 21.3475 5.50299 20.8974C5.05291 20.4474 4.80005 19.8369 4.80005 19.2004V4.80039ZM7.20005 2.40039V10.2004C7.20005 10.3118 7.23108 10.421 7.28966 10.5158C7.34824 10.6106 7.43206 10.6872 7.53172 10.737C7.63138 10.7869 7.74296 10.808 7.85393 10.798C7.96491 10.788 8.07091 10.7472 8.16005 10.6804L10.2 9.15039L12.24 10.6804C12.3292 10.7472 12.4352 10.788 12.5462 10.798C12.6571 10.808 12.7687 10.7869 12.8684 10.737C12.968 10.6872 13.0519 10.6106 13.1104 10.5158C13.169 10.421 13.2 10.3118 13.2 10.2004V2.40039H7.20005ZM8.40005 9.00039V3.60039H12V9.00039L10.56 7.92039C10.4562 7.8425 10.3299 7.80039 10.2 7.80039C10.0702 7.80039 9.94391 7.8425 9.84005 7.92039L8.40005 9.00039Z" fill="black"/>
</svg>
