<svg width="77" height="77" viewBox="0 0 77 77" fill="none" xmlns="http://www.w3.org/2000/svg">
<path d="M27.1528 4.45813L36.8791 32.4213L42.5528 33.637L55.5212 8.1055C47.7401 0.972867 33.3668 2.70199 27.1528 4.45813Z" fill="#B0CBFF"/>
<path d="M55.5212 8.1055L42.5528 33.637L46.6054 37.2843L72.137 28.7738C70.651 22.83 65.2475 10.3751 55.5212 8.1055Z" fill="#4686E7"/>
<path d="M72.137 28.7738L46.6054 37.2843L45.3896 42.958L69.3001 54.3054C76.757 46.2001 74.2984 33.9071 72.137 28.7738Z" fill="#A3C3F3"/>
<path d="M69.3001 54.3054L45.3896 42.958L41.337 46.2001L50.2528 71.3264C64.1938 68.4085 68.7598 58.7633 69.3001 54.3054Z" fill="#4686E7"/>
<path d="M24.3159 70.5159L36.4738 46.2001L32.0159 42.5528L6.07909 51.0633C7.70015 64.3559 18.9124 69.5703 24.3159 70.5159Z" fill="#4686E7"/>
<path d="M36.8791 32.4213L27.1528 4.45813C15.4813 7.37612 8.78088 18.6423 6.88962 23.9107L32.0159 36.0685L36.8791 32.4213Z" fill="#4686E7"/>
<path d="M50.2528 71.3264L41.337 46.2001H36.4738L24.3159 70.5159C28.5307 77.0001 43.3633 73.758 50.2528 71.3264Z" fill="#A3C3F3"/>
<path d="M6.07909 51.0633L32.0159 42.5528V36.0685L6.88962 23.9107C-2.18827 32.9885 2.56681 45.7949 6.07909 51.0633Z" fill="#A3C3F3"/>
<path d="M36.8791 32.4213L27.1528 4.45813M36.8791 32.4213L42.5528 33.637M36.8791 32.4213L32.0159 36.0685M27.1528 4.45813C33.3668 2.70199 47.7401 0.972867 55.5212 8.1055M27.1528 4.45813C15.4813 7.37612 8.78088 18.6423 6.88962 23.9106M55.5212 8.1055L42.5528 33.637M55.5212 8.1055C65.2475 10.3751 70.651 22.83 72.137 28.7738M42.5528 33.637L46.6054 37.2843M46.6054 37.2843L72.137 28.7738M46.6054 37.2843L45.3896 42.958M72.137 28.7738C74.2984 33.9071 76.757 46.2001 69.3001 54.3054M69.3001 54.3054L45.3896 42.958M69.3001 54.3054C68.7598 58.7633 64.1938 68.4085 50.2528 71.3264M45.3896 42.958L41.337 46.2001M50.2528 71.3264L41.337 46.2001M50.2528 71.3264C43.3633 73.758 28.5307 77.0001 24.3159 70.5159M41.337 46.2001H36.4738M24.3159 70.5159L36.4738 46.2001M24.3159 70.5159C18.9124 69.5703 7.70015 64.3559 6.0791 51.0633M36.4738 46.2001L32.0159 42.5528M6.0791 51.0633L32.0159 42.5528M6.0791 51.0633C2.56681 45.7949 -2.18827 32.9885 6.88962 23.9106M32.0159 42.5528V36.0685M6.88962 23.9106L32.0159 36.0685" stroke="#0E1B2E" stroke-width="0.810526"/>
<circle cx="38.9053" cy="38.906" r="8.10526" fill="#D9D9D9"/>
<g clip-path="url(#clip0_102_36141)">
<path d="M43.6917 36.6138L40.6772 36.1757L39.3296 33.4438C39.2928 33.369 39.2323 33.3084 39.1575 33.2716C38.9699 33.179 38.7419 33.2562 38.6481 33.4438L37.3005 36.1757L34.286 36.6138C34.2029 36.6257 34.1269 36.6649 34.0687 36.7243C33.9984 36.7965 33.9596 36.8938 33.961 36.9947C33.9623 37.0955 34.0036 37.1917 34.0758 37.2621L36.2569 39.3885L35.7416 42.3912C35.7295 42.4611 35.7373 42.5329 35.7639 42.5986C35.7906 42.6643 35.8351 42.7212 35.8925 42.7628C35.9498 42.8045 36.0177 42.8292 36.0884 42.8343C36.1591 42.8393 36.2298 42.8244 36.2925 42.7913L38.9889 41.3737L41.6852 42.7913C41.7588 42.8305 41.8443 42.8436 41.9262 42.8293C42.1328 42.7937 42.2717 42.5978 42.2361 42.3912L41.7208 39.3885L43.9019 37.2621C43.9613 37.2039 44.0004 37.1279 44.0123 37.0448C44.0444 36.8371 43.8995 36.6447 43.6917 36.6138Z" fill="#EB9525"/>
</g>
<path fill-rule="evenodd" clip-rule="evenodd" d="M38.5 77C59.763 77 77 59.763 77 38.5C77 17.237 59.763 0 38.5 0C17.237 0 0 17.237 0 38.5C0 59.763 17.237 77 38.5 77ZM38.5 72.9474C57.5248 72.9474 72.9474 57.5248 72.9474 38.5C72.9474 19.4752 57.5248 4.05263 38.5 4.05263C19.4752 4.05263 4.05263 19.4752 4.05263 38.5C4.05263 57.5248 19.4752 72.9474 38.5 72.9474Z" fill="#5053EA"/>
<path d="M40.6579 10.5781L40.6929 9.2688L39.3512 9.23291L39.3695 8.54583L40.7113 8.58172L40.7463 7.27238L41.3686 7.28902L41.3336 8.59837L42.6753 8.63426L42.6569 9.32134L41.3152 9.28545L41.2801 10.5948L40.6579 10.5781ZM42.6548 11.5842L43.3289 11.6023L43.2928 12.9505L38.5675 12.8241L38.5875 12.0787L42.6386 12.187L42.6548 11.5842ZM40.9646 13.9041C41.7122 13.9241 42.2922 14.065 42.7046 14.3268C43.1213 14.5931 43.3214 15.0352 43.3048 15.6532C43.2883 16.2711 43.065 16.6997 42.6348 16.939C42.2088 17.1828 41.622 17.2946 40.8744 17.2746C40.1182 17.2544 39.5296 17.1111 39.1086 16.8447C38.6918 16.5827 38.4917 16.1428 38.5082 15.5248C38.5248 14.9069 38.7482 14.4761 39.1785 14.2325C39.613 13.9933 40.2084 13.8838 40.9646 13.9041ZM40.8938 16.5487C41.2439 16.558 41.5405 16.5422 41.7838 16.5011C42.0269 16.4644 42.226 16.3789 42.3809 16.2447C42.5402 16.1105 42.6234 15.9074 42.6307 15.6351C42.638 15.3629 42.5657 15.1555 42.4139 15.0131C42.2663 14.8708 42.0722 14.7726 41.8315 14.7186C41.5906 14.6689 41.2952 14.6394 40.9452 14.63C40.5822 14.6203 40.277 14.6338 40.0295 14.6704C39.782 14.707 39.5808 14.7925 39.4259 14.9267C39.2708 15.0652 39.1896 15.2706 39.1824 15.5429C39.1751 15.8151 39.2452 16.0224 39.3928 16.1647C39.5402 16.3114 39.7365 16.4096 39.9816 16.4594C40.2268 16.5092 40.5309 16.539 40.8938 16.5487ZM40.8535 18.0565C41.6011 18.0765 42.1811 18.2174 42.5936 18.4793C43.0102 18.7456 43.2103 19.1877 43.1938 19.8056C43.1772 20.4236 42.9539 20.8522 42.5237 21.0915C42.0977 21.3352 41.5109 21.4471 40.7633 21.4271C40.0071 21.4069 39.4185 21.2636 38.9975 20.9972C38.5808 20.7352 38.3806 20.2952 38.3972 19.6773C38.4137 19.0594 38.6371 18.6286 39.0674 18.385C39.5019 18.1458 40.0973 18.0363 40.8535 18.0565ZM40.7828 20.7011C41.1328 20.7105 41.4294 20.6946 41.6727 20.6536C41.9158 20.6168 42.1149 20.5314 42.2698 20.3971C42.4291 20.263 42.5124 20.0598 42.5196 19.7876C42.5269 19.5153 42.4546 19.308 42.3028 19.1656C42.1552 19.0232 41.9611 18.9251 41.7204 18.8711C41.4795 18.8214 41.1841 18.7919 40.8341 18.7825C40.4711 18.7728 40.1659 18.7862 39.9184 18.8229C39.6709 18.8595 39.4697 18.9449 39.3148 19.0791C39.1597 19.2177 39.0786 19.4231 39.0713 19.6953C39.064 19.9676 39.1341 20.1749 39.2817 20.3172C39.4291 20.4638 39.6254 20.5621 39.8705 20.6119C40.1157 20.6617 40.4198 20.6914 40.7828 20.7011Z" fill="#242424"/>
<path d="M37.2842 3.64648L39.7158 10.9412L44.1737 4.05175L37.2842 3.64648Z" fill="#3C3C3C" stroke="#5053EA" stroke-width="0.810526"/>
<path d="M36.6981 65.9713L36.3234 67.2264L37.6095 67.6104L37.4128 68.269L36.1267 67.885L35.7519 69.14L35.1555 68.9619L35.5302 67.7068L34.2441 67.3228L34.4408 66.6642L35.7269 67.0483L36.1017 65.7932L36.6981 65.9713ZM35.8947 61.4555L35.2731 63.5369L36.5096 63.9061C36.4196 63.7844 36.3606 63.627 36.3326 63.4336C36.3058 63.2362 36.3215 63.0401 36.3796 62.8454C36.4835 62.4975 36.6422 62.2381 36.8556 62.0672C37.0703 61.8922 37.3052 61.7932 37.5602 61.7701C37.8164 61.7428 38.0709 61.767 38.3236 61.8424C38.6301 61.9339 38.8855 62.0756 39.0899 62.2675C39.2914 62.454 39.4252 62.6857 39.4914 62.9626C39.5588 63.2353 39.5418 63.5416 39.4404 63.8812C39.3056 64.3327 39.0855 64.6617 38.7802 64.8683C38.4749 65.0749 38.1299 65.1501 37.7451 65.0938L37.9511 64.4042C38.1594 64.4168 38.345 64.3617 38.508 64.2389C38.6668 64.1149 38.7815 63.9348 38.852 63.6987C38.9398 63.4047 38.9163 63.1585 38.7815 62.9604C38.6479 62.7581 38.4341 62.613 38.14 62.5252C37.8418 62.4361 37.5917 62.4427 37.3897 62.5448C37.1837 62.6457 37.0374 62.8411 36.9508 63.131C36.8902 63.334 36.8906 63.5213 36.9521 63.6931C37.0107 63.8595 37.1177 63.9997 37.2731 64.1138L37.0727 64.7848L34.457 64.0037L35.2734 61.2699L35.8947 61.4555ZM37.8044 60.8843C37.0878 60.6703 36.5645 60.3832 36.2344 60.023C35.9015 59.6574 35.8235 59.1785 36.0003 58.5861C36.1772 57.9938 36.5045 57.6381 36.9821 57.5191C37.4569 57.3947 38.0526 57.4395 38.7691 57.6535C39.494 57.8699 40.025 58.1616 40.3621 58.5284C40.6963 58.8899 40.7749 59.3667 40.598 59.9591C40.4212 60.5514 40.0933 60.9091 39.6144 61.0323C39.1326 61.1501 38.5292 61.1008 37.8044 60.8843ZM38.5613 58.3493C38.2258 58.2492 37.9353 58.1872 37.6897 58.1635C37.4454 58.1357 37.231 58.1664 37.0464 58.2556C36.8577 58.3437 36.7244 58.5181 36.6465 58.7791C36.5686 59.04 36.5844 59.259 36.6939 59.4361C36.7993 59.612 36.9612 59.7573 37.1795 59.8721C37.3991 59.9828 37.6767 60.0882 38.0122 60.1884C38.3601 60.2923 38.6583 60.3588 38.9068 60.3879C39.1552 60.417 39.3718 60.3869 39.5563 60.2976C39.7421 60.2042 39.874 60.0271 39.9519 59.7661C40.0298 59.5052 40.0161 59.2868 39.9107 59.1109C39.8065 58.9309 39.6426 58.785 39.4188 58.6731C39.1951 58.5612 38.9093 58.4532 38.5613 58.3493Z" fill="#3C3C3C"/>
<path d="M57.0492 58.9597L58.032 59.8256L58.9193 58.8186L59.435 59.2729L58.5477 60.28L59.5304 61.1459L59.1189 61.613L58.1362 60.7471L57.2488 61.7541L56.7331 61.2998L57.6205 60.2927L56.6377 59.4268L57.0492 58.9597ZM55.2598 59.4226C54.9746 59.7071 54.6522 59.8408 54.2928 59.8237C53.9301 59.8037 53.5834 59.648 53.2526 59.3565C53.0255 59.1564 52.865 58.943 52.7711 58.7162C52.6771 58.4893 52.6494 58.269 52.6879 58.0553C52.7265 57.8415 52.8229 57.647 52.9773 57.4719C53.1544 57.2708 53.3594 57.1461 53.5922 57.0977C53.825 57.0493 54.0374 57.0665 54.2295 57.1493L54.2466 57.1298C54.1067 56.9028 54.0518 56.6643 54.0819 56.4143C54.1092 56.1676 54.2286 55.9242 54.4401 55.6842C54.6087 55.4928 54.8025 55.3611 55.0215 55.2891C55.2406 55.2171 55.4746 55.213 55.7237 55.2769C55.9699 55.344 56.213 55.4833 56.453 55.6948C56.8033 56.0034 57.0134 56.347 57.0832 56.7254C57.147 57.1042 57.0384 57.4694 56.7574 57.821L56.2222 57.3495C56.3607 57.1662 56.4185 56.9665 56.3957 56.7505C56.37 56.5377 56.255 56.3413 56.0506 56.1613C55.8528 55.9869 55.6532 55.9061 55.4518 55.9189C55.2476 55.9348 55.0698 56.0288 54.9184 56.2007C54.7183 56.4277 54.6498 56.6526 54.7129 56.8752C54.7699 57.0983 54.9476 57.3412 55.2459 57.6042L55.3724 57.7156L54.9695 58.1729L54.8381 58.0572C54.5726 57.829 54.3345 57.697 54.124 57.6613C53.9102 57.6227 53.7233 57.6943 53.5633 57.8759C53.4261 58.0316 53.3678 58.1991 53.3883 58.3785C53.406 58.5612 53.5072 58.734 53.6921 58.8969C53.8738 59.0569 54.0563 59.1342 54.2397 59.1287C54.4203 59.1265 54.5803 59.0658 54.7198 58.9468L55.2598 59.4226ZM53.1116 56.0174C52.6172 56.5785 52.1373 56.9335 51.672 57.0823C51.2006 57.2316 50.733 57.1019 50.2692 56.6932C49.8054 56.2845 49.6194 55.8384 49.7114 55.3548C49.7972 54.8716 50.0873 54.3494 50.5817 53.7883C51.0819 53.2207 51.5691 52.8607 52.0433 52.7082C52.5115 52.5561 52.9775 52.6844 53.4413 53.093C53.9051 53.5017 54.0927 53.9493 54.004 54.4357C53.9092 54.9226 53.6117 55.4498 53.1116 56.0174ZM51.1266 54.2684C50.8952 54.5311 50.7172 54.769 50.5929 54.9821C50.4653 55.1923 50.4033 55.3999 50.4071 55.6049C50.408 55.8131 50.5106 56.0072 50.715 56.1872C50.9193 56.3673 51.1248 56.4446 51.3315 56.4193C51.5353 56.3973 51.7351 56.3111 51.9308 56.1609C52.1232 56.0079 52.3352 55.8 52.5667 55.5373C52.8068 55.2648 52.992 55.0219 53.1225 54.8084C53.2529 54.595 53.3163 54.3858 53.3125 54.1808C53.3055 53.973 53.1998 53.779 52.9955 53.599C52.7912 53.419 52.5871 53.34 52.3833 53.362C52.1762 53.3813 51.975 53.469 51.7797 53.6253C51.5844 53.7816 51.3667 53.996 51.1266 54.2684Z" fill="#3C3C3C"/>
<path d="M65.358 41.2528L66.6619 41.3774L66.7896 40.0412L67.4738 40.1066L67.3461 41.4427L68.65 41.5673L68.5908 42.187L67.2869 42.0624L67.1593 43.3986L66.4751 43.3332L66.6027 41.997L65.2988 41.8725L65.358 41.2528ZM64.5029 40.1224L64.4498 40.6775L61.9838 43.5816L61.093 43.4965L61.3822 40.4691L60.7819 40.4118L60.843 39.7728L61.4433 39.8301L61.537 38.849L62.2599 38.9181L62.1662 39.8992L64.5029 40.1224ZM61.8552 42.8137L63.5962 40.6807L62.0729 40.5351L61.8552 42.8137ZM60.0963 41.1475C60.0252 41.8919 59.8449 42.461 59.5555 42.8545C59.2613 43.252 58.8065 43.4213 58.1912 43.3625C57.5758 43.3037 57.1635 43.0516 56.9542 42.606C56.7402 42.1644 56.6687 41.5713 56.7398 40.8268C56.8118 40.0738 56.995 39.4964 57.2896 39.0946C57.5795 38.6967 58.0321 38.5272 58.6475 38.586C59.2628 38.6448 59.6773 38.8971 59.8909 39.3431C60.0998 39.793 60.1683 40.3944 60.0963 41.1475ZM57.4628 40.8959C57.4295 41.2445 57.425 41.5415 57.4493 41.787C57.4693 42.0321 57.541 42.2365 57.6643 42.4003C57.7872 42.5684 57.9842 42.6653 58.2553 42.6912C58.5264 42.7171 58.7382 42.6592 58.8907 42.5174C59.0428 42.38 59.154 42.193 59.2244 41.9566C59.2904 41.7197 59.3401 41.427 59.3734 41.0784C59.4079 40.717 59.4154 40.4115 59.3958 40.1621C59.3762 39.9127 59.3048 39.7062 59.1814 39.5424C59.0538 39.3782 58.8545 39.2832 58.5834 39.2573C58.3123 39.2314 58.1007 39.2871 57.9486 39.4246C57.7922 39.5617 57.6807 39.7508 57.6143 39.9919C57.5478 40.2331 57.4973 40.5344 57.4628 40.8959Z" fill="#3C3C3C"/>
<path d="M60.265 22.4027L61.2937 21.5919L60.4627 20.5377L61.0025 20.1122L61.8334 21.1664L62.8621 20.3555L63.2475 20.8444L62.2188 21.6552L63.0497 22.7093L62.5099 23.1348L61.679 22.0807L60.6503 22.8916L60.265 22.4027ZM58.436 25.8838C58.5964 26.0105 58.7566 26.0741 58.9166 26.0746C59.0766 26.0751 59.2449 26.0057 59.4215 25.8666C59.6897 25.6552 59.8083 25.3937 59.7775 25.0823C59.7493 24.7742 59.5513 24.3799 59.1835 23.8992C59.2129 24.1182 59.1749 24.3353 59.0694 24.5506C58.9639 24.7659 58.8127 24.9511 58.6158 25.1063C58.3917 25.2829 58.156 25.3889 57.9086 25.4243C57.6606 25.4657 57.4168 25.4322 57.1772 25.3238C56.9342 25.2181 56.7124 25.0379 56.5117 24.7833C56.3244 24.5457 56.2046 24.296 56.1525 24.0344C56.097 23.7754 56.1181 23.5193 56.2158 23.2662C56.3161 23.0164 56.4953 22.7899 56.7533 22.5865C57.103 22.3109 57.4382 22.1705 57.7589 22.1654C58.0789 22.1663 58.3907 22.2756 58.6943 22.4931C58.9945 22.7134 59.3105 23.034 59.6424 23.4549C60.6218 24.6975 60.6736 25.6639 59.7977 26.3544C59.4582 26.622 59.1195 26.7404 58.7814 26.7096C58.44 26.6815 58.1466 26.5467 57.9013 26.3053L58.436 25.8838ZM58.3577 24.5171C58.5648 24.3539 58.6918 24.1519 58.7388 23.9112C58.7851 23.6766 58.7159 23.4422 58.5312 23.2079C58.3466 22.9737 58.1332 22.8391 57.8911 22.8043C57.6482 22.7756 57.4063 22.8562 57.1652 23.0462C56.9514 23.2148 56.8355 23.4134 56.8176 23.6422C56.7964 23.8736 56.8727 24.0996 57.0467 24.3203C57.2287 24.5512 57.4343 24.6863 57.6635 24.7258C57.8921 24.7713 58.1235 24.7017 58.3577 24.5171ZM56.4183 25.9385C56.8813 26.5258 57.1441 27.0618 57.2067 27.5463C57.2687 28.0369 57.0569 28.4735 56.5715 28.8562C56.086 29.2388 55.6137 29.3414 55.1545 29.164C54.6946 28.9925 54.2332 28.6132 53.7703 28.0258C53.302 27.4317 53.0355 26.8877 52.9709 26.3937C52.9055 25.9058 53.1156 25.4705 53.601 25.0878C54.0865 24.7051 54.5605 24.6012 55.0231 24.776C55.4849 24.9569 55.95 25.3444 56.4183 25.9385ZM54.3406 27.5763C54.5574 27.8513 54.7594 28.0691 54.9466 28.2298C55.1304 28.3931 55.3234 28.4914 55.5257 28.5246C55.7307 28.5612 55.9401 28.4952 56.154 28.3266C56.3679 28.158 56.481 27.9698 56.4933 27.7619C56.5082 27.5574 56.4595 27.3454 56.347 27.1259C56.2311 26.909 56.0647 26.6631 55.848 26.3881C55.6232 26.1029 55.4175 25.877 55.231 25.7102C55.0446 25.5435 54.8502 25.4435 54.6479 25.4103C54.4422 25.3798 54.2324 25.4488 54.0185 25.6174C53.8046 25.786 53.6902 25.9725 53.6752 26.177C53.6569 26.3841 53.707 26.5978 53.8256 26.8181C53.9441 27.0384 54.1158 27.2911 54.3406 27.5763Z" fill="#3C3C3C"/>
<path d="M20.916 56.9146L19.9981 57.8489L20.9555 58.7896L20.4738 59.2799L19.5163 58.3392L18.5984 59.2735L18.1543 58.8372L19.0723 57.9029L18.1149 56.9622L18.5966 56.4719L19.554 57.4126L20.472 56.4783L20.916 56.9146ZM21.8961 55.288C21.4206 55.4511 21.0103 55.363 20.6649 55.0237C20.4984 54.8601 20.3867 54.6685 20.3297 54.4489C20.2727 54.2293 20.286 53.9969 20.3694 53.7516C20.4498 53.5033 20.6081 53.2589 20.8444 53.0184C21.0777 52.781 21.3177 52.6199 21.5646 52.5352C21.8114 52.4444 22.0451 52.4255 22.2656 52.4786C22.4862 52.5316 22.6797 52.64 22.8462 52.8036C23.0189 52.9732 23.1276 53.1679 23.1723 53.3876C23.217 53.6012 23.2036 53.8153 23.1322 54.0299C23.3696 53.9178 23.6123 53.8835 23.8603 53.9272C24.1052 53.9678 24.3263 54.0851 24.5237 54.279C24.7241 54.4759 24.8514 54.701 24.9056 54.9542C24.9598 55.2075 24.9392 55.4659 24.8437 55.7297C24.7482 55.9934 24.5868 56.2409 24.3596 56.4722C24.1324 56.7034 23.8878 56.8691 23.6258 56.9692C23.3668 57.0663 23.1102 57.0899 22.8561 57.0402C22.6019 56.9905 22.3746 56.8672 22.1742 56.6702C21.9738 56.4733 21.8511 56.2528 21.8061 56.0086C21.7612 55.7645 21.7912 55.5243 21.8961 55.288ZM22.4156 53.3714C22.243 53.2017 22.0574 53.1254 21.8588 53.1424C21.6603 53.1594 21.4686 53.262 21.2838 53.4501C21.102 53.6351 21.0044 53.827 20.9908 54.0258C20.9773 54.2247 21.0584 54.4104 21.2342 54.5831C21.3883 54.7346 21.5693 54.8033 21.777 54.7892C21.9847 54.7691 22.1749 54.6711 22.3476 54.4953C22.5203 54.3196 22.6133 54.1262 22.6268 53.9151C22.6402 53.7041 22.5698 53.5228 22.4156 53.3714ZM22.7454 54.8861C22.5454 55.0897 22.4327 55.3062 22.4072 55.5356C22.3817 55.759 22.4629 55.9631 22.651 56.1479C22.8268 56.3206 23.0308 56.3998 23.263 56.3855C23.4921 56.3682 23.7112 56.2532 23.9202 56.0404C24.1262 55.8308 24.2328 55.6113 24.2399 55.3819C24.2501 55.1495 24.1689 54.9485 23.9962 54.7788C23.8112 54.5971 23.6057 54.5194 23.3797 54.5458C23.1568 54.5692 22.9453 54.6826 22.7454 54.8861ZM24.2674 52.9392C23.734 52.415 23.4056 51.9166 23.2822 51.4439C23.1588 50.9651 23.3137 50.5052 23.7469 50.0642C24.1801 49.6233 24.6357 49.4619 25.1136 49.5799C25.5915 49.6919 26.0971 50.0099 26.6306 50.534C27.1702 51.0642 27.5032 51.5702 27.6298 52.0521C27.7562 52.5278 27.6028 52.9862 27.1696 53.4271C26.7364 53.8681 26.2793 54.0311 25.7983 53.9161C25.3174 53.795 24.8071 53.4694 24.2674 52.9392ZM26.1216 51.0521C25.8718 50.8067 25.6439 50.6161 25.4379 50.4804C25.235 50.3415 25.031 50.2684 24.8262 50.2611C24.6182 50.2507 24.4188 50.3426 24.2279 50.5369C24.0371 50.7311 23.9487 50.9321 23.9627 51.1399C23.9737 51.3446 24.0489 51.5487 24.1882 51.7523C24.3306 51.9528 24.5267 52.1757 24.7764 52.4211C25.0354 52.6756 25.268 52.8738 25.474 53.0157C25.6801 53.1575 25.8855 53.2321 26.0904 53.2395C26.2983 53.2438 26.4977 53.1488 26.6886 52.9545C26.8794 52.7602 26.9694 52.5608 26.9584 52.3561C26.9505 52.1483 26.8738 51.9426 26.7283 51.7391C26.5828 51.5356 26.3806 51.3066 26.1216 51.0521Z" fill="#242424"/>
<path d="M14.0078 38.93L12.7007 39.0147L12.7875 40.3541L12.1016 40.3986L12.0148 39.0591L10.7077 39.1438L10.6675 38.5227L11.9745 38.438L11.8878 37.0985L12.5736 37.0541L12.6604 38.3935L13.9675 38.3088L14.0078 38.93ZM14.8273 36.8496L14.7837 36.1766L16.1295 36.0894L16.4352 40.8065L15.6911 40.8547L15.429 36.8106L14.8273 36.8496ZM17.2918 38.3208C17.2434 37.5746 17.3308 36.9841 17.5538 36.5494C17.781 36.1102 18.203 35.8706 18.8198 35.8306C19.4367 35.7907 19.8839 35.9739 20.1615 36.3805C20.4431 36.7824 20.6081 37.3565 20.6565 38.1028C20.7054 38.8577 20.6164 39.4569 20.3896 39.9005C20.1668 40.3395 19.747 40.5789 19.1301 40.6189C18.5132 40.6589 18.0638 40.4757 17.7819 40.0695C17.5041 39.6586 17.3407 39.0757 17.2918 38.3208ZM19.9318 38.1498C19.9091 37.8004 19.8663 37.5064 19.8032 37.2679C19.7444 37.0291 19.6411 36.8387 19.4932 36.6967C19.3451 36.5503 19.1352 36.486 18.8634 36.5036C18.5917 36.5212 18.3918 36.6121 18.2638 36.7763C18.1356 36.9363 18.0555 37.1386 18.0237 37.3832C17.9962 37.6276 17.9938 37.9245 18.0165 38.2739C18.0399 38.6362 18.0812 38.939 18.1403 39.182C18.1994 39.4251 18.3028 39.6177 18.4506 39.7597C18.6028 39.9015 18.8147 39.9636 19.0865 39.946C19.3583 39.9283 19.5583 39.8396 19.6865 39.6796C19.8191 39.5194 19.899 39.315 19.9262 39.0663C19.9534 38.8176 19.9553 38.5121 19.9318 38.1498Z" fill="#242424"/>
<path d="M20.6421 17.7074L19.6083 16.9031L18.7841 17.9625L18.2416 17.5405L19.0658 16.4811L18.032 15.6768L18.4142 15.1855L19.448 15.9898L20.2722 14.9304L20.8147 15.3524L19.9905 16.4118L21.0243 17.2161L20.6421 17.7074ZM22.3707 18.4936C22.1539 18.0401 22.1942 17.6223 22.4915 17.2402C22.6348 17.056 22.8122 16.9229 23.0238 16.8411C23.2354 16.7592 23.4678 16.7456 23.721 16.8002C23.977 16.8514 24.238 16.9805 24.5041 17.1876C24.7668 17.392 24.9545 17.6119 25.067 17.8473C25.1857 18.082 25.2313 18.312 25.204 18.5372C25.1767 18.7624 25.0914 18.9671 24.948 19.1514C24.7994 19.3424 24.6185 19.4728 24.4054 19.5426C24.1984 19.6115 23.9842 19.6229 23.7628 19.5766C23.9015 19.7996 23.9635 20.0367 23.9487 20.2881C23.9365 20.536 23.8455 20.7692 23.6756 20.9875C23.5031 21.2093 23.2941 21.3617 23.0488 21.4447C22.8035 21.5277 22.5444 21.537 22.2714 21.4725C21.9984 21.408 21.734 21.2762 21.4781 21.0771C21.2222 20.878 21.0295 20.6541 20.8998 20.4054C20.7736 20.1593 20.7206 19.9072 20.7407 19.649C20.7608 19.3908 20.8571 19.1509 21.0297 18.9291C21.2022 18.7073 21.4072 18.56 21.6445 18.4873C21.8818 18.4145 22.1239 18.4166 22.3707 18.4936ZM24.3344 18.789C24.4831 18.598 24.5375 18.4048 24.4977 18.2095C24.4579 18.0143 24.334 17.8357 24.1259 17.6738C23.9211 17.5145 23.7193 17.4396 23.5202 17.4491C23.3212 17.4585 23.146 17.5605 22.9947 17.755C22.862 17.9255 22.8146 18.1132 22.8524 18.318C22.8964 18.5219 23.0156 18.6996 23.2101 18.8509C23.4046 19.0022 23.6074 19.0723 23.8186 19.0614C24.0298 19.0504 24.2017 18.9596 24.3344 18.789ZM22.8677 19.291C22.6425 19.1158 22.4145 19.0288 22.1836 19.0299C21.9587 19.0302 21.7654 19.1345 21.6034 19.3426C21.4521 19.5371 21.397 19.7488 21.4379 19.9778C21.4815 20.2034 21.6209 20.4078 21.8564 20.5909C22.0884 20.7714 22.3187 20.852 22.5473 20.8327C22.7793 20.8161 22.9697 20.7122 23.1183 20.5211C23.2776 20.3164 23.3311 20.1034 23.2788 19.8819C23.2299 19.6632 23.0929 19.4662 22.8677 19.291ZM24.977 20.5787C25.4362 19.9885 25.8935 19.6048 26.3488 19.4278C26.8103 19.2501 27.2849 19.351 27.7728 19.7306C28.2607 20.1101 28.4736 20.5441 28.4113 21.0324C28.3552 21.52 28.0975 22.0589 27.6383 22.6491C27.1737 23.2462 26.7094 23.6353 26.2454 23.8165C25.7873 23.9969 25.3144 23.8973 24.8265 23.5178C24.3386 23.1382 24.1241 22.7029 24.1829 22.2119C24.2478 21.7202 24.5125 21.1758 24.977 20.5787ZM27.0651 22.2032C27.2801 21.9268 27.4431 21.6785 27.5542 21.4583C27.6688 21.2407 27.7179 21.0297 27.7016 20.8253C27.688 20.6175 27.5737 20.4301 27.3588 20.2628C27.1438 20.0956 26.934 20.0309 26.7292 20.0688C26.5271 20.1033 26.333 20.2015 26.1468 20.3633C25.9641 20.5279 25.7652 20.7483 25.5502 21.0247C25.3272 21.3113 25.1571 21.5651 25.04 21.7861C24.9228 22.0071 24.8723 22.2198 24.8886 22.4242C24.9083 22.6312 25.0256 22.8183 25.2406 22.9855C25.4555 23.1527 25.664 23.2191 25.8661 23.1846C26.0716 23.1528 26.2671 23.0529 26.4525 22.885C26.6379 22.7171 26.8421 22.4898 27.0651 22.2032Z" fill="#3C3C3C"/>
<defs>
<clipPath id="clip0_102_36141">
<rect width="12.1579" height="12.1579" fill="white" transform="translate(32.4211 32.4219)"/>
</clipPath>
</defs>
</svg>
