<svg width="24" height="25" viewBox="0 0 24 25" fill="none" xmlns="http://www.w3.org/2000/svg">
<path fill-rule="evenodd" clip-rule="evenodd" d="M9.98116 13.1043L3.60893 10.9802C1.25571 10.1958 0.0791016 9.80362 0.0791016 9.08286C0.0791016 8.3621 1.25571 7.9699 3.60892 7.18549L20.3721 1.59777C22.0279 1.04584 22.8558 0.769876 23.2928 1.20689C23.7298 1.64391 23.4538 2.4718 22.9019 4.12759L17.3142 20.8908C16.5298 23.244 16.1376 24.4206 15.4168 24.4206C14.6961 24.4206 14.3039 23.244 13.5195 20.8908L11.3954 14.5185L17.5823 8.33163C17.9728 7.94111 17.9728 7.30794 17.5823 6.91742C17.1917 6.52689 16.5586 6.52689 16.1681 6.91742L9.98116 13.1043Z" fill="#5053EA"/>
</svg>
