<svg width="34" height="32" viewBox="0 0 34 32" fill="none" xmlns="http://www.w3.org/2000/svg">
<path d="M13.615 6.43973C14.8991 3.23835 15.5412 1.63767 16.5844 1.41582C16.8586 1.35749 17.1421 1.35749 17.4164 1.41582C18.4596 1.63767 19.1017 3.23835 20.3858 6.43973C21.1161 8.26029 21.4812 9.17057 22.1644 9.7897C22.3561 9.96336 22.5641 10.118 22.7856 10.2515C23.5753 10.7275 24.5611 10.8158 26.5326 10.9923C29.8701 11.2912 31.5389 11.4407 32.0485 12.3922C32.1541 12.5892 32.2258 12.8026 32.2608 13.0234C32.4297 14.0894 31.203 15.2056 28.7494 17.4378L28.068 18.0577C26.9209 19.1013 26.3474 19.6231 26.0157 20.2743C25.8167 20.6649 25.6832 21.0856 25.6207 21.5196C25.5165 22.2429 25.6844 22.9999 26.0203 24.5139L26.1403 25.0548C26.7427 27.7699 27.0439 29.1274 26.6679 29.7947C26.3302 30.3941 25.7081 30.7778 25.0209 30.8106C24.2559 30.8471 23.1779 29.9687 21.022 28.212C19.6015 27.0545 18.8913 26.4758 18.1029 26.2497C17.3824 26.0431 16.6184 26.0431 15.8979 26.2497C15.1095 26.4758 14.3992 27.0545 12.9788 28.212C10.8229 29.9687 9.7449 30.8471 8.97986 30.8106C8.29266 30.7778 7.67057 30.3941 7.33284 29.7947C6.95685 29.1274 7.25804 27.7699 7.86044 25.0548L7.98045 24.5139C8.31636 22.9999 8.48431 22.2429 8.38009 21.5196C8.31756 21.0856 8.18413 20.6649 7.98513 20.2743C7.65338 19.6231 7.07984 19.1013 5.93275 18.0577L5.2514 17.4378C2.79783 15.2056 1.57104 14.0894 1.73998 13.0234C1.77498 12.8026 1.84673 12.5892 1.95228 12.3922C2.46187 11.4407 4.13064 11.2912 7.46816 10.9923C9.43973 10.8158 10.4255 10.7275 11.2152 10.2515C11.4367 10.118 11.6447 9.96336 11.8364 9.7897C12.5196 9.17057 12.8847 8.26029 13.615 6.43973Z" fill="#EB9525" stroke="#EB9525" stroke-width="2"/>
</svg>
