<svg width="22" height="22" viewBox="0 0 22 22" fill="none" xmlns="http://www.w3.org/2000/svg">
<path fill-rule="evenodd" clip-rule="evenodd" d="M8.10376 9.70498V13.205C8.10376 14.0144 8.57101 14.7992 9.46001 15.4056C10.517 16.1266 12.2171 16.6175 14.1413 16.6175C16.0654 16.6175 17.7655 16.1266 18.8225 15.4056C19.7115 14.7992 20.1788 14.0144 20.1788 13.205V9.70498C20.1788 9.27011 19.8261 8.91748 19.3913 8.91748C18.9564 8.91748 18.6038 9.27011 18.6038 9.70498V13.205C18.6038 13.5559 18.3203 13.842 17.9344 14.1045C17.0804 14.6872 15.6961 15.0425 14.1413 15.0425C12.5864 15.0425 11.2021 14.6872 10.3481 14.1045C9.96226 13.842 9.67876 13.5559 9.67876 13.205V9.70498C9.67876 9.27011 9.32613 8.91748 8.89126 8.91748C8.45638 8.91748 8.10376 9.27011 8.10376 9.70498Z" fill="#C7C7F2" fill-opacity="0.9"/>
<path fill-rule="evenodd" clip-rule="evenodd" d="M8.10376 13.205V16.705C8.10376 17.5144 8.57101 18.2992 9.46001 18.9056C10.517 19.6266 12.2171 20.1175 14.1413 20.1175C16.0654 20.1175 17.7655 19.6266 18.8225 18.9056C19.7115 18.2992 20.1788 17.5144 20.1788 16.705V13.205C20.1788 12.7701 19.8261 12.4175 19.3913 12.4175C18.9564 12.4175 18.6038 12.7701 18.6038 13.205V16.705C18.6038 17.0559 18.3203 17.342 17.9344 17.6045C17.0804 18.1872 15.6961 18.5425 14.1413 18.5425C12.5864 18.5425 11.2021 18.1872 10.3481 17.6045C9.96226 17.342 9.67876 17.0559 9.67876 16.705V13.205C9.67876 12.7701 9.32613 12.4175 8.89126 12.4175C8.45638 12.4175 8.10376 12.7701 8.10376 13.205Z" fill="#C7C7F2" fill-opacity="0.9"/>
<path fill-rule="evenodd" clip-rule="evenodd" d="M14.1413 6.29248C12.218 6.29248 10.5179 6.78335 9.46088 7.50435C8.57188 8.11073 8.10376 8.89561 8.10376 9.70498C8.10376 10.5144 8.57188 11.2992 9.46088 11.9056C10.5179 12.6266 12.218 13.1175 14.1413 13.1175C16.0645 13.1175 17.7646 12.6266 18.8216 11.9056C19.7106 11.2992 20.1788 10.5144 20.1788 9.70498C20.1788 8.89561 19.7106 8.11073 18.8216 7.50435C17.7646 6.78335 16.0645 6.29248 14.1413 6.29248ZM14.1413 7.86748C15.6953 7.86748 17.0795 8.22361 17.9344 8.80548C18.3203 9.06886 18.6038 9.35411 18.6038 9.70498C18.6038 10.0559 18.3203 10.3411 17.9344 10.6045C17.0795 11.1864 15.6953 11.5425 14.1413 11.5425C12.5873 11.5425 11.203 11.1864 10.3481 10.6045C9.96226 10.3411 9.67876 10.0559 9.67876 9.70498C9.67876 9.35411 9.96226 9.06886 10.3481 8.80548C11.203 8.22361 12.5873 7.86748 14.1413 7.86748Z" fill="#C7C7F2" fill-opacity="0.9"/>
<path fill-rule="evenodd" clip-rule="evenodd" d="M1.10376 4.8749V8.3749C1.10376 9.0364 1.40913 9.6734 2.00238 10.215C2.70326 10.8555 3.84776 11.3753 5.23988 11.6238C5.66776 11.6999 6.07639 11.4147 6.15339 10.9868C6.22951 10.558 5.94339 10.1494 5.51551 10.0733C4.62826 9.9149 3.86263 9.63315 3.32276 9.2569C2.95088 8.99878 2.67876 8.7179 2.67876 8.3749V4.8749C2.67876 4.44003 2.32613 4.0874 1.89126 4.0874C1.45638 4.0874 1.10376 4.44003 1.10376 4.8749Z" fill="#C7C7F2" fill-opacity="0.9"/>
<path fill-rule="evenodd" clip-rule="evenodd" d="M1.10376 8.3749V11.8749C1.10376 12.6143 1.48963 13.3292 2.23251 13.9093C3.11013 14.5953 4.53376 15.1089 6.20413 15.2489C6.63726 15.2848 7.01788 14.9628 7.05376 14.5297C7.09051 14.0965 6.76851 13.715 6.33539 13.6792C5.02289 13.5698 3.89151 13.2067 3.20113 12.6677C2.89838 12.4314 2.67876 12.1768 2.67876 11.8749V8.3749C2.67876 7.94003 2.32613 7.5874 1.89126 7.5874C1.45638 7.5874 1.10376 7.94003 1.10376 8.3749ZM6.32488 6.67828C5.01676 6.56715 3.88801 6.20403 3.20026 5.6659C2.89751 5.42965 2.67876 5.1759 2.67876 4.8749C2.67876 4.52403 2.96226 4.23878 3.34813 3.9754C4.20301 3.39353 5.58726 3.0374 7.14126 3.0374C8.69526 3.0374 10.0795 3.39353 10.9344 3.9754C11.3203 4.23878 11.6038 4.52403 11.6038 4.8749C11.6038 5.30978 11.9564 5.6624 12.3913 5.6624C12.8261 5.6624 13.1788 5.30978 13.1788 4.8749C13.1788 4.06553 12.7106 3.28065 11.8216 2.67428C10.7646 1.95328 9.06451 1.4624 7.14126 1.4624C5.21801 1.4624 3.51788 1.95328 2.46088 2.67428C1.57188 3.28065 1.10376 4.06553 1.10376 4.8749C1.10376 5.6134 1.48876 6.3274 2.22988 6.90665C3.10576 7.59178 4.52676 8.10628 6.19188 8.24715C6.62501 8.2839 7.00651 7.96278 7.04326 7.52965C7.08001 7.09653 6.75801 6.71503 6.32488 6.67828Z" fill="#C7C7F2" fill-opacity="0.9"/>
</svg>
