<svg width="22" height="22" viewBox="0 0 22 22" fill="none" xmlns="http://www.w3.org/2000/svg">
<g clip-path="url(#clip0_883_14734)">
<path d="M7 3.00001C9.99374 3.42768 11.1584 3.85536 12.3714 5.22174C12.8023 5.70717 13.0447 6.36818 12.8279 6.98002C12.2652 8.56812 10.3226 10 7 10C3.51481 10 0.650955 7.92474 0.650955 6.00001C0.650955 4.07528 3.51562 3.00001 7 3.00001ZM0.650955 7.59235C0.650955 9.51708 3.47626 11.0759 6.96145 11.0759C7.38549 11.0759 7.79742 11.0444 8.19803 11C7.8819 11.4258 7.66624 11.9175 7.56722 12.4385C7.36611 12.4498 7.16742 12.4635 6.96145 12.4635C3.47626 12.4635 0.650955 10.9055 0.650955 8.98078V7.59235ZM15.0384 9.53566C18.5236 9.53566 21.3489 11.0945 21.3489 13.0192C21.3489 14.944 18.5228 16.5028 15.0384 16.5028C11.5532 16.5028 8.72788 14.944 8.72788 13.0192C8.72788 11.0945 11.554 9.53566 15.0384 9.53566ZM0.650955 10.0154C0.652571 11.9402 3.47626 13.499 6.96145 13.499C7.16419 13.499 7.36934 13.4845 7.56722 13.4732C7.57611 13.5337 7.58095 13.6145 7.59226 13.6751C7.55188 13.797 7.51715 13.9174 7.51715 14.0547V14.8624C7.3338 14.8713 7.14965 14.8866 6.96145 14.8866C3.47626 14.8866 0.650955 13.3286 0.650955 11.4039V10.0154ZM0.650955 12.4385C0.652571 14.3632 3.47626 15.9221 6.96145 15.9221C7.16419 15.9221 7.36934 15.9075 7.56722 15.8962C7.57611 15.9568 7.58095 16.0376 7.59226 16.0982C7.55188 16.2193 7.51715 16.3405 7.51715 16.4778V17.2855C7.3338 17.2944 7.14965 17.3097 6.96145 17.3097C3.47626 17.3097 0.650955 15.7517 0.650955 13.8269V12.4385ZM8.72788 14.0539C8.72949 15.9786 11.5532 17.5375 15.0384 17.5375C18.5139 17.5375 21.3327 15.9956 21.3489 14.0789V15.4423C21.3489 17.367 18.5244 18.9259 15.0384 18.9259C11.5524 18.9259 8.72788 17.367 8.72788 15.4423V14.0539ZM8.72788 16.477C8.72949 18.4017 11.5532 19.9605 15.0384 19.9605C18.5139 19.9605 21.3327 18.4187 21.3489 16.502V17.8654C21.3489 19.7901 18.5244 21.349 15.0384 21.349C11.5524 21.349 8.72788 19.7901 8.72788 17.8654V16.477Z" fill="#FEFEFE"/>
</g>
<defs>
<clipPath id="clip0_883_14734">
<rect width="21" height="21" fill="white" transform="matrix(-1 0 0 1 21.5 0.5)"/>
</clipPath>
</defs>
</svg>
